<svg width="120" height="120" viewBox="0 0 120 120" fill="none" xmlns="http://www.w3.org/2000/svg">
<rect width="120" height="120" fill="#1B1D23"/>
<path fill-rule="evenodd" clip-rule="evenodd" d="M79.3974 64.8357V72.5617H73.6988V72.4416C73.5276 72.5045 73.3473 72.565 73.1578 72.6233C72.3405 72.8744 71.4797 73 70.5756 73C69.498 73 68.4774 72.8059 67.514 72.4178C66.5505 72.0297 65.6989 71.4931 64.9592 70.8082C64.2194 70.1233 63.6372 69.331 63.2126 68.4315C62.7879 67.5319 62.5756 66.5753 62.5756 65.5616C62.5756 64.7465 62.7219 63.9532 63.0145 63.1818C62.6506 63.0788 62.3125 63.0273 62.0001 63.0273C61.5161 63.0273 61.0572 63.1529 60.6234 63.4041C60.1896 63.6552 59.8403 63.9817 59.5754 64.3835C59.3106 64.7853 59.1782 65.2191 59.1782 65.6849V72.5616H56L56.0001 72.5617H49.5069L48.1507 68.8083H39.8493L38.4932 72.5617H32L41.2055 49.9589H46.7946L53.4795 66.3728V58.5342H59.1782V60.5068C59.7626 59.7488 60.4453 59.1575 61.2261 58.7328C62.0069 58.3081 62.8129 58.0958 63.6439 58.0958C64.1828 58.0958 64.7535 58.1871 65.3563 58.3698C65.9115 58.538 66.3776 58.7528 66.7546 59.014C66.9559 58.9087 67.1634 58.8104 67.377 58.7191C68.3496 58.3036 69.4067 58.0958 70.5482 58.0958C71.4432 58.0958 72.3108 58.2191 73.151 58.4657C73.3437 58.5222 73.5262 58.5814 73.6988 58.6432V49H79.3974V59.8494C80.0458 59.2923 80.7787 58.8608 81.596 58.5548C82.4134 58.2489 83.2422 58.0959 84.0824 58.0959C85.1509 58.0959 86.1075 58.3379 86.9522 58.822C87.797 59.306 88.4659 59.9612 88.9591 60.7877C89.4522 61.6142 89.6988 62.5526 89.6988 63.6028V72.5617H84.0002V64.8357C84.0002 64.1325 83.7901 63.5685 83.37 63.1439C82.9499 62.7192 82.3928 62.5069 81.6988 62.5069C81.2422 62.5069 80.8403 62.6028 80.4933 62.7946C80.1463 62.9864 79.8769 63.2558 79.6851 63.6028C79.4933 63.9498 79.3974 64.3608 79.3974 64.8357ZM73.6988 62.2332V68.8626L73.2332 67.9041C73.0596 68.0228 72.8199 68.1301 72.514 68.226C72.208 68.3219 71.8724 68.3698 71.5071 68.3698C70.9135 68.3698 70.3975 68.2397 69.9592 67.9794C69.5208 67.7191 69.1852 67.3744 68.9523 66.9452C68.7194 66.5159 68.603 66.0502 68.603 65.5479C68.603 65.1461 68.7012 64.726 68.8975 64.2876C69.0939 63.8493 69.4044 63.4794 69.829 63.178C70.2537 62.8767 70.8039 62.726 71.4797 62.726C72.1921 62.726 72.7765 62.8812 73.2332 63.1917L73.6988 62.2332ZM41.9042 63.5206L44.0001 58.1508L46.096 63.5206H41.9042Z" fill="white"/>
</svg>
